<svg width="107" height="40" viewBox="0 0 107 40" fill="none" xmlns="http://www.w3.org/2000/svg">
<path d="M46.4284 38V27.2558H49.7284C50.5573 27.2558 51.2377 27.394 51.7698 27.6702C52.3121 27.9465 52.7163 28.3251 52.9824 28.806C53.2484 29.2767 53.3815 29.814 53.3815 30.4177C53.3815 31.1237 53.1973 31.7479 52.8289 32.2902C52.4708 32.8223 51.9182 33.1958 51.1712 33.4107L53.5042 38H51.9694L49.8052 33.5949H49.7284H47.7177V38H46.4284ZM47.7177 32.413H49.6824C50.501 32.413 51.0996 32.2288 51.4782 31.8605C51.867 31.4819 52.0615 31.0009 52.0615 30.4177C52.0615 29.8037 51.8721 29.3177 51.4935 28.9595C51.1252 28.6014 50.5163 28.4223 49.667 28.4223H47.7177V32.413ZM58.5173 38.1842C57.6475 38.1842 56.9006 37.954 56.2764 37.4935C55.6522 37.033 55.1713 36.3884 54.8336 35.5595C54.5062 34.7205 54.3424 33.7433 54.3424 32.6279C54.3424 31.5126 54.5062 30.5405 54.8336 29.7116C55.1713 28.8726 55.6522 28.2228 56.2764 27.7623C56.9006 27.3019 57.6475 27.0716 58.5173 27.0716C59.3871 27.0716 60.1341 27.3019 60.7582 27.7623C61.3824 28.2228 61.8582 28.8726 62.1857 29.7116C62.5234 30.5405 62.6922 31.5126 62.6922 32.6279C62.6922 33.7433 62.5234 34.7205 62.1857 35.5595C61.8582 36.3884 61.3824 37.033 60.7582 37.4935C60.1341 37.954 59.3871 38.1842 58.5173 38.1842ZM58.5173 36.9716C59.3666 36.9716 60.0522 36.593 60.5741 35.8358C61.1062 35.0786 61.3722 34.0093 61.3722 32.6279C61.3722 31.2465 61.1062 30.1772 60.5741 29.42C60.0522 28.6628 59.3666 28.2842 58.5173 28.2842C57.6578 28.2842 56.9671 28.6628 56.4452 29.42C55.9234 30.1772 55.6624 31.2465 55.6624 32.6279C55.6624 34.0093 55.9234 35.0786 56.4452 35.8358C56.9671 36.593 57.6578 36.9716 58.5173 36.9716ZM63.162 38L66.5234 27.2558H68.0122L71.3583 38H69.9462L69.1634 35.3293H65.3569L64.5741 38H63.162ZM67.2295 29.067L65.6792 34.2549H68.8411L67.2909 29.067H67.2295ZM72.4114 38V27.2558H74.6676C76.4276 27.2558 77.7272 27.7367 78.5663 28.6986C79.4156 29.6605 79.8402 30.9702 79.8402 32.6279C79.8402 34.2856 79.4156 35.5953 78.5663 36.5572C77.7272 37.5191 76.4276 38 74.6676 38H72.4114ZM73.7007 36.8181H74.637C75.5783 36.8181 76.3304 36.6442 76.8932 36.2963C77.4663 35.9484 77.8807 35.4623 78.1365 34.8381C78.3923 34.214 78.5202 33.4772 78.5202 32.6279C78.5202 31.7786 78.3923 31.0419 78.1365 30.4177C77.8807 29.7935 77.4663 29.3074 76.8932 28.9595C76.3304 28.6116 75.5783 28.4377 74.637 28.4377H73.7007V36.8181ZM80.9086 38V27.2558H82.29L84.7458 32.367L87.2017 27.2558H88.583V38H87.3244V29.7423L85.237 34.086H84.2547L82.1672 29.7577V38H80.9086ZM89.3905 38L92.7519 27.2558H94.2408L97.5868 38H96.1747L95.3919 35.3293H91.5854L90.8026 38H89.3905ZM93.458 29.067L91.9078 34.2549H95.0696L93.5194 29.067H93.458ZM98.7627 38V27.2558H102.339C103.158 27.2558 103.828 27.4042 104.35 27.7009C104.872 27.9977 105.255 28.3916 105.501 28.8828C105.746 29.374 105.869 29.9163 105.869 30.5098C105.869 31.1033 105.746 31.6456 105.501 32.1367C105.255 32.6279 104.872 33.0219 104.35 33.3186C103.828 33.6153 103.158 33.7637 102.339 33.7637H100.052V38H98.7627ZM100.052 32.5819H102.308C103.065 32.5819 103.628 32.3926 103.997 32.014C104.365 31.6251 104.549 31.1237 104.549 30.5098C104.549 29.8958 104.365 29.3944 103.997 29.0056C103.628 28.6167 103.065 28.4223 102.308 28.4223H100.052V32.5819Z" fill="#292929"/>
<path d="M7.27369 7.36963L8.48569 8.70367C8.58918 8.81728 8.77815 8.74417 8.77815 8.59119V5.39669C8.77815 5.35213 8.79577 5.30939 8.82717 5.27778C8.85857 5.24617 8.90119 5.22826 8.94575 5.22796H11.1729C12.1504 5.22796 13.0559 5.73863 13.557 6.57213L13.9968 7.30327C14.026 7.35175 14.0672 7.39187 14.1165 7.41975C14.1658 7.44763 14.2214 7.46233 14.278 7.46243H14.2949C14.382 7.46228 14.4656 7.42755 14.5271 7.36587C14.5887 7.30418 14.6233 7.22058 14.6233 7.13342V3.81068C14.6233 3.72352 14.5887 3.63992 14.5271 3.57823C14.4656 3.51655 14.382 3.48182 14.2949 3.48167H9.11391C9.02486 3.48167 8.93946 3.44629 8.87649 3.38333C8.81352 3.32036 8.77815 3.23496 8.77815 3.14591V1.62852C8.77815 1.4896 8.66566 1.37656 8.52619 1.37656H7.3513C7.21239 1.37656 7.09934 1.48904 7.09934 1.62852V3.14591C7.09934 3.3315 6.94918 3.48223 6.76358 3.48223H0.329574C0.242509 3.48223 0.158994 3.51674 0.0973245 3.5782C0.0356551 3.63966 0.000860071 3.72305 0.000562413 3.81012V4.59412C0.000562413 4.67848 0.0331824 4.75947 0.091111 4.82077L7.31081 11.2739C7.36852 11.3348 7.40069 11.4155 7.40069 11.4994C7.40069 11.5833 7.36852 11.6641 7.31081 11.725L0.0905485 18.1786C0.032472 18.2398 6.46427e-05 18.3209 0 18.4053V19.1893C0 19.371 0.147352 19.5178 0.329012 19.5178H6.76302C6.94862 19.5178 7.09878 19.6685 7.09878 19.8541V21.3715C7.09878 21.5104 7.21126 21.6234 7.35074 21.6234H8.52562C8.66454 21.6234 8.77758 21.5109 8.77758 21.3715V19.8541C8.77758 19.6685 8.92775 19.5183 9.11278 19.5183H14.2937C14.3371 19.5184 14.38 19.5099 14.4201 19.4933C14.4601 19.4768 14.4965 19.4524 14.5271 19.4218C14.5578 19.3911 14.582 19.3546 14.5985 19.3146C14.615 19.2745 14.6235 19.2315 14.6233 19.1882V15.866C14.6233 15.7787 14.5886 15.6951 14.5269 15.6334C14.4652 15.5717 14.3816 15.537 14.2943 15.537H14.2785C14.2218 15.5369 14.1659 15.5515 14.1164 15.5794C14.0669 15.6073 14.0255 15.6475 13.9962 15.6962L13.557 16.4273C13.3093 16.8378 12.9596 17.1774 12.542 17.4129C12.1244 17.6484 11.6529 17.7719 11.1735 17.7715H8.94575C8.92366 17.7714 8.90181 17.767 8.88144 17.7584C8.86106 17.7499 8.84257 17.7375 8.827 17.7218C8.81144 17.7061 8.79911 17.6876 8.79073 17.6671C8.78235 17.6467 8.77807 17.6248 8.77815 17.6027V14.4082C8.77828 14.3742 8.76808 14.341 8.74889 14.3129C8.72971 14.2849 8.70244 14.2633 8.67071 14.2511C8.63899 14.2389 8.6043 14.2367 8.57125 14.2446C8.53821 14.2526 8.50837 14.2704 8.48569 14.2957L7.27369 15.6298C7.16121 15.7535 7.09934 15.9144 7.09934 16.082V17.6033C7.09934 17.6478 7.08169 17.6904 7.05025 17.7218C7.01882 17.7532 6.97619 17.7709 6.93174 17.7709H2.80138C2.79198 17.7712 2.78268 17.769 2.7744 17.7645C2.76611 17.7601 2.75913 17.7536 2.75414 17.7456C2.74861 17.7362 2.74613 17.7253 2.74703 17.7144C2.74794 17.7035 2.75219 17.6932 2.7592 17.6849L9.19489 11.6372L9.19602 11.6355C9.2273 11.597 9.24437 11.5488 9.24437 11.4992C9.24437 11.4495 9.2273 11.4013 9.19602 11.3628L9.19489 11.3616L2.7592 5.31457C2.75219 5.30621 2.74794 5.29588 2.74703 5.28501C2.74613 5.27413 2.74861 5.26324 2.75414 5.25383C2.75913 5.24587 2.76611 5.23934 2.7744 5.2349C2.78268 5.23046 2.79198 5.22827 2.80138 5.22852H6.93174C7.02398 5.22852 7.09934 5.30332 7.09934 5.39612V6.91745C7.09934 7.08449 7.16121 7.2459 7.27369 7.36963Z" fill="#FF5500"/>
<path d="M21.2599 17.5V4.27982H23.3751L26.1136 10.2478L28.852 4.27982H30.9673V17.5H29.0598V8.09478L26.9068 12.8163H25.3204L23.1674 8.11367V17.5H21.2599ZM32.9996 17.5V15.7247H35.8702V6.0551H33.0373V4.27982H40.705V6.0551H37.8722V15.7247H40.7428V17.5H32.9996ZM43.0395 17.5V4.27982H46.2124C48.3402 4.27982 49.9203 4.87158 50.9528 6.0551C51.9852 7.22603 52.5014 8.83763 52.5014 10.8899C52.5014 12.9422 51.9852 14.5601 50.9528 15.7436C49.9203 16.9145 48.3402 17.5 46.2124 17.5H43.0395ZM45.0414 15.6492H46.1368C47.6729 15.6492 48.7809 15.2211 49.4608 14.3649C50.1407 13.4962 50.4806 12.3378 50.4806 10.8899C50.4806 9.44198 50.1407 8.28994 49.4608 7.43378C48.7809 6.56502 47.6729 6.13064 46.1368 6.13064H45.0414V15.6492ZM54.2315 17.5V4.27982H62.6736V6.07399H56.2334V9.92672H62.107V11.702H56.2334V15.7058H62.6736V17.5H54.2315ZM64.4415 17.5V4.27982H66.4056L71.9392 13.9683V4.27982H73.8467V17.5H71.8825L66.349 7.8115V17.5H64.4415Z" fill="#292929"/>
</svg>
