<svg xmlns="http://www.w3.org/2000/svg" width="64" height="64" fill="none">
  <path fill="#FF9501" d="M43.203 15.448C41.758 10.316 37.361 7 32 7c-5.361 0-9.759 3.316-11.202 8.448-.25.882-.464 2.049-.64 3.467a1.385 1.385 0 0 1-1.21 1.205 23 23 0 0 0-3.498.677C10.316 22.242 7 26.639 7 31.998s3.316 9.76 8.448 11.204c.882.25 2.049.464 3.467.64.634.08 1.13.578 1.205 1.21.152 1.265.378 2.442.675 3.497 1.445 5.132 5.843 8.449 11.204 8.449 5.36 0 9.76-3.317 11.204-8.449.25-.883.464-2.05.64-3.468a1.38 1.38 0 0 1 1.21-1.204 23.056 23.056 0 0 0 3.498-.676c2.026-.57 3.768-1.6 5.136-2.967C55.784 38.137 57 35.244 57 31.999c0-5.361-3.316-9.759-8.449-11.204-.886-.249-2.052-.465-3.467-.64a1.382 1.382 0 0 1-1.206-1.21 23.154 23.154 0 0 0-.675-3.498v.002Zm4.48 24.677c-.742.209-1.508.375-2.276.494a1.365 1.365 0 0 1-1.03-.26 1.347 1.347 0 0 1-.535-.908 22.328 22.328 0 0 0-2.37-7.45 22.336 22.336 0 0 0 2.369-7.45c.05-.363.24-.685.535-.909a1.358 1.358 0 0 1 1.03-.26c.77.12 1.535.284 2.276.494 4.516 1.271 6.117 5.173 6.117 8.126 0 2.954-1.603 6.855-6.117 8.126l.001-.003Zm-10.66-14.003a1.387 1.387 0 0 1-.394-1.372 1.338 1.338 0 0 1 .98-.982c.42-.108.85-.204 1.276-.283.462-.087.917.054 1.246.384.33.33.47.784.384 1.245a19.246 19.246 0 0 1-1.08 3.692 22.72 22.72 0 0 0-2.412-2.683v-.001Zm3.596-7.53c.055.365-.036.73-.26 1.03a1.35 1.35 0 0 1-.908.534 22.394 22.394 0 0 0-6.843 2.063c-.385.188-.83.188-1.214 0a22.406 22.406 0 0 0-6.843-2.063 1.352 1.352 0 0 1-.907-.535 1.362 1.362 0 0 1-.26-1.031c.117-.768.284-1.534.494-2.276.439-1.56 1.19-2.771 2.11-3.689 1.741-1.742 4.082-2.428 6.016-2.428 2.953 0 6.855 1.602 8.126 6.117.208.742.375 1.508.493 2.276l-.004.001Zm-2.846 13.407a19.466 19.466 0 0 1-5.774 5.774 19.483 19.483 0 0 1-5.773-5.774 19.28 19.28 0 0 1 4.949-5.21 1.41 1.41 0 0 1 1.649 0A19.28 19.28 0 0 1 37.773 32ZM27.371 24.75a1.399 1.399 0 0 1-.394 1.372 22.72 22.72 0 0 0-2.411 2.682 19.31 19.31 0 0 1-1.081-3.691 1.378 1.378 0 0 1 .384-1.246c.33-.33.784-.47 1.245-.384.426.08.855.176 1.276.284.49.126.855.493.982.983h-.001Zm1.433 14.686a19.266 19.266 0 0 1-5.217 1.303.29.29 0 0 1-.24-.087.292.292 0 0 1-.086-.24c.19-1.802.629-3.552 1.303-5.218 1.22 1.6 2.64 3.02 4.24 4.24v.002Zm-8.646-14.887a22.33 22.33 0 0 0 2.37 7.45 22.374 22.374 0 0 0-2.37 7.45c-.05.363-.239.685-.535.909a1.358 1.358 0 0 1-1.03.26 19.247 19.247 0 0 1-2.276-.493C11.8 38.854 10.2 34.953 10.2 32c0-1.934.686-4.274 2.428-6.016.92-.92 2.13-1.67 3.689-2.11a19.039 19.039 0 0 1 2.277-.492c.366-.055.732.036 1.03.26.297.222.487.544.535.908h-.001Zm3.223 20.858a1.365 1.365 0 0 1 .392-1.181c.21-.21.48-.345.776-.384a22.33 22.33 0 0 0 7.45-2.37 22.371 22.371 0 0 0 7.45 2.37c.363.048.685.239.909.535.223.299.316.665.26 1.03a19.25 19.25 0 0 1-.493 2.276C38.854 52.2 34.953 53.8 32 53.8c-2.953 0-6.854-1.602-8.126-6.117a19.343 19.343 0 0 1-.493-2.277l.001.002Zm16.053-10.211a19.242 19.242 0 0 1 1.08 3.691c.087.462-.054.916-.384 1.246-.33.33-.784.47-1.246.384a19.274 19.274 0 0 1-3.691-1.08c1.6-1.22 3.02-2.64 4.24-4.24l.001-.001Z" style="fill:#ff9501;fill:color(display-p3 1 .5843 .0039);fill-opacity:1"/>
  <path fill="url(#a)" d="M29.92 36.223a19.48 19.48 0 0 1-3.659-4.169 47.604 47.604 0 0 0-1.682 3.16 22.434 22.434 0 0 0 3.69 3.799l1.651-2.79Z"/>
  <path fill="url(#b)" d="M24.138 36.352c.096-.289.199-.575.308-.86a9.348 9.348 0 0 0-.354.82l.046.04Z"/>
  <path fill="url(#c)" d="M27.063 30.802Z"/>
  <path fill="url(#d)" d="m38.93 43.766 1.055-3.407a.686.686 0 0 0-.001-.098c-.312.236-.703.329-1.1.255a19.271 19.271 0 0 1-3.69-1.079l.287-.223c-1.07.708-2.76 1.815-3.746 2.394l.265-.136a22.345 22.345 0 0 0 6.93 2.294Z"/>
  <path fill="url(#e)" d="M41.762 31.428a42.055 42.055 0 0 1-2.607 4.125c.094-.117.186-.236.277-.355l.002-.002c.45 1.111.795 2.265 1.032 3.447l2.637-2.637a22.299 22.299 0 0 0-1.632-4.005c.1-.19.197-.38.291-.573Z"/>
  <defs>
    <linearGradient id="a" x1="28.59" x2="25.141" y1="37.287" y2="33.614" gradientUnits="userSpaceOnUse">
      <stop stop-color="#FF9500" style="stop-color:#ff9500;stop-color:color(display-p3 1 .5843 0);stop-opacity:1"/>
      <stop offset="1" stop-color="#C67400" style="stop-color:#c67400;stop-color:color(display-p3 .7765 .4549 0);stop-opacity:1"/>
    </linearGradient>
    <linearGradient id="b" x1="28.59" x2="25.141" y1="37.287" y2="33.614" gradientUnits="userSpaceOnUse">
      <stop stop-color="#FF9500" style="stop-color:#ff9500;stop-color:color(display-p3 1 .5843 0);stop-opacity:1"/>
      <stop offset="1" stop-color="#C67400" style="stop-color:#c67400;stop-color:color(display-p3 .7765 .4549 0);stop-opacity:1"/>
    </linearGradient>
    <linearGradient id="c" x1="28.59" x2="25.141" y1="37.287" y2="33.614" gradientUnits="userSpaceOnUse">
      <stop stop-color="#FF9500" style="stop-color:#ff9500;stop-color:color(display-p3 1 .5843 0);stop-opacity:1"/>
      <stop offset="1" stop-color="#C67400" style="stop-color:#c67400;stop-color:color(display-p3 .7765 .4549 0);stop-opacity:1"/>
    </linearGradient>
    <linearGradient id="d" x1="38.561" x2="33.313" y1="42.533" y2="40.489" gradientUnits="userSpaceOnUse">
      <stop stop-color="#FF9500" style="stop-color:#ff9500;stop-color:color(display-p3 1 .5843 0);stop-opacity:1"/>
      <stop offset="1" stop-color="#C67400" style="stop-color:#c67400;stop-color:color(display-p3 .7765 .4549 0);stop-opacity:1"/>
    </linearGradient>
    <linearGradient id="e" x1="42.267" x2="40.658" y1="36.163" y2="33.839" gradientUnits="userSpaceOnUse">
      <stop stop-color="#FF9500" style="stop-color:#ff9500;stop-color:color(display-p3 1 .5843 0);stop-opacity:1"/>
      <stop offset="1" stop-color="#C67400" style="stop-color:#c67400;stop-color:color(display-p3 .7784 .4548 0);stop-opacity:1"/>
    </linearGradient>
  </defs>
</svg>